<svg width="16" height="17" viewBox="0 0 16 17" fill="none" xmlns="http://www.w3.org/2000/svg">
<g clip-path="url(#clip0_697_3008)">
<path d="M4.99967 7.83333H3.06634C2.69297 7.83333 2.50629 7.83333 2.36368 7.906C2.23824 7.96991 2.13625 8.0719 2.07234 8.19734C1.99967 8.33995 1.99967 8.52663 1.99967 8.9V14.5M10.9997 7.83333H12.933C13.3064 7.83333 13.4931 7.83333 13.6357 7.906C13.7611 7.96991 13.8631 8.0719 13.927 8.19734C13.9997 8.33995 13.9997 8.52663 13.9997 8.9V14.5M10.9997 14.5V4.63333C10.9997 3.8866 10.9997 3.51323 10.8543 3.22801C10.7265 2.97713 10.5225 2.77316 10.2717 2.64532C9.98645 2.5 9.61308 2.5 8.86634 2.5H7.13301C6.38627 2.5 6.0129 2.5 5.72769 2.64532C5.4768 2.77316 5.27283 2.97713 5.145 3.22801C4.99967 3.51323 4.99967 3.8866 4.99967 4.63333V14.5M14.6663 14.5H1.33301M7.33301 5.16667H8.66634M7.33301 7.83333H8.66634M7.33301 10.5H8.66634" stroke="currentColor" stroke-width="1.5" stroke-linecap="round" stroke-linejoin="round"/>
</g>
<defs>
<clipPath id="clip0_697_3008">
<rect width="16" height="16" fill="white" transform="translate(0 0.5)"/>
</clipPath>
</defs>
</svg>
