<svg width="16" height="16" viewBox="0 0 16 16" fill="none" xmlns="http://www.w3.org/2000/svg">
  <g clip-path="url(#clip0_294_143300)">
    <path d="M10.6668 5.33301V3.46634C10.6668 2.7196 10.6668 2.34624 10.5215 2.06102C10.3937 1.81014 10.1897 1.60616 9.93882 1.47833C9.6536 1.33301 9.28023 1.33301 8.5335 1.33301H3.46683C2.72009 1.33301 2.34672 1.33301 2.06151 1.47833C1.81063 1.60616 1.60665 1.81014 1.47882 2.06102C1.3335 2.34624 1.3335 2.7196 1.3335 3.46634V8.53301C1.3335 9.27974 1.3335 9.65311 1.47882 9.93833C1.60665 10.1892 1.81063 10.3932 2.06151 10.521C2.34672 10.6663 2.72009 10.6663 3.46683 10.6663H5.3335M7.46683 14.6663H12.5335C13.2802 14.6663 13.6536 14.6663 13.9388 14.521C14.1897 14.3932 14.3937 14.1892 14.5215 13.9383C14.6668 13.6531 14.6668 13.2797 14.6668 12.533V7.46634C14.6668 6.7196 14.6668 6.34624 14.5215 6.06102C14.3937 5.81014 14.1897 5.60616 13.9388 5.47833C13.6536 5.33301 13.2802 5.33301 12.5335 5.33301H7.46683C6.72009 5.33301 6.34672 5.33301 6.06151 5.47833C5.81063 5.60616 5.60665 5.81014 5.47882 6.06102C5.3335 6.34624 5.3335 6.7196 5.3335 7.46634V12.533C5.3335 13.2797 5.3335 13.6531 5.47882 13.9383C5.60665 14.1892 5.81063 14.3932 6.06151 14.521C6.34672 14.6663 6.72009 14.6663 7.46683 14.6663Z" stroke="#1A1A1A" stroke-width="1.33333" stroke-linecap="round" stroke-linejoin="round"/>
  </g>
  <defs>
  <clipPath id="clip0_294_143300">
    <rect width="16" height="16" fill="white"/>
  </clipPath>
  </defs>
</svg>
