<svg width="16" height="16" viewBox="0 0 16 16" fill="none" xmlns="http://www.w3.org/2000/svg">
  <g clip-path="url(#clip0_294_139696)">
    <path d="M12 6.66671L9.33337 4.00004M1.66669 14.3334L3.92293 14.0827C4.19859 14.0521 4.33642 14.0367 4.46525 13.995C4.57955 13.958 4.68832 13.9058 4.78861 13.8396C4.90166 13.7651 4.99972 13.667 5.19584 13.4709L14 4.66671C14.7364 3.93033 14.7364 2.73642 14 2.00004C13.2637 1.26366 12.0698 1.26366 11.3334 2.00004L2.52917 10.8042C2.33305 11.0003 2.23499 11.0984 2.16045 11.2114C2.09431 11.3117 2.04203 11.4205 2.00503 11.5348C1.96332 11.6636 1.94801 11.8015 1.91738 12.0771L1.66669 14.3334Z" stroke="currentColor" stroke-opacity="0.6" stroke-linecap="round" stroke-linejoin="round"/>
  </g>
  <defs>
    <clipPath id="clip0_294_139696">
      <rect width="16" height="16" fill="white"/>
    </clipPath>
  </defs>
</svg>
