<svg width="16" height="16" viewBox="0 0 16 16" fill="none" xmlns="http://www.w3.org/2000/svg">
  <g clip-path="url(#clip0_582_25453)">
    <rect width="16" height="16" rx="4" fill="#6CB853" fill-opacity="0.2"/>
    <path fill-rule="evenodd" clip-rule="evenodd" d="M5.5 3H9L12 6V11.5C12 12.5 11.5 13 10.5 13H5.5C4.5 13 4 12.5 4 11.5V4.5C4 3.5 4.5 3 5.5 3Z" fill="#6CB853"/>
    <path fill-rule="evenodd" clip-rule="evenodd" d="M9 3V6H12L9 3Z" fill="white" fill-opacity="0.4"/>
    <path fill-rule="evenodd" clip-rule="evenodd" d="M9.37893 8.5H6.62565C6.4195 8.5 6.25 8.66941 6.25 8.87546V10.6245C6.25 10.8306 6.4195 11 6.62565 11H9.37893C9.58508 11 9.75 10.8306 9.75 10.6245V8.87546C9.75 8.66941 9.58508 8.5 9.37893 8.5ZM7.37696 8.97161C7.60144 8.97161 7.7801 9.15476 7.7801 9.37454C7.7801 9.5989 7.60144 9.78205 7.37696 9.78205C7.15249 9.78205 6.96924 9.5989 6.96924 9.37454C6.96924 9.15476 7.15249 8.97161 7.37696 8.97161ZM9.50262 10.6245C9.50262 10.6932 9.44764 10.7527 9.37893 10.7527H6.62565C6.55694 10.7527 6.50196 10.6932 6.50196 10.6245V10.5513L7.00131 10.0522L7.41361 10.4643C7.46401 10.5147 7.54188 10.5147 7.59228 10.4643L8.62762 9.42949L9.50262 10.304V10.6245Z" fill="white"/>
  </g>
  <defs>
    <clipPath id="clip0_582_25453">
      <rect width="16" height="16" fill="white"/>
    </clipPath>
  </defs>
</svg>
