<svg width="218" height="58" viewBox="0 0 218 58" fill="none" xmlns="http://www.w3.org/2000/svg">
<path d="M22 32L0 19V45L22 58V32Z" fill="#7FB36B"/>
<path d="M30 58V32L52 19V45L30 58Z" fill="#7FB36B"/>
<path d="M48 13L26 25.5L3.5 13L26 0L48 13Z" fill="#7FB36B"/>
<path d="M77.0841 43.5898V45.6722H76.1787V44.4349H71.7221V45.6722H70.8067V43.5898H71.0884C71.4304 43.5697 71.6651 43.3283 71.7926 42.8655C71.92 42.4027 72.0072 41.7488 72.0541 40.9038L72.1346 39.1031H76.2693V43.5898H77.0841ZM72.9394 40.9742C72.9126 41.6449 72.8556 42.2015 72.7684 42.6442C72.6879 43.0801 72.537 43.3953 72.3157 43.5898H75.3035V39.9481H72.9897L72.9394 40.9742Z" fill="#7FB36B"/>
<path d="M83.3219 39.1031V44.4349H82.3562V39.9481H80.0625L80.0021 41.1352C79.9686 41.8528 79.9049 42.453 79.811 42.9359C79.7171 43.4121 79.5629 43.7944 79.3482 44.0828C79.1336 44.3711 78.8352 44.5153 78.4529 44.5153C78.2785 44.5153 78.0807 44.4852 77.8594 44.4248L77.9197 43.6099C78.0069 43.6301 78.0874 43.6401 78.1612 43.6401C78.4294 43.6401 78.6306 43.5228 78.7648 43.288C78.8989 43.0533 78.9861 42.775 79.0263 42.453C79.0666 42.1311 79.1035 41.6717 79.137 41.0748L79.2275 39.1031H83.3219Z" fill="#7FB36B"/>
<path d="M89.8672 39.1031V44.4349H89.0021V42.7448H87.3422L86.1752 44.4349H85.139L86.4368 42.614C86.0344 42.4933 85.7259 42.2954 85.5113 42.0205C85.2966 41.7388 85.1893 41.39 85.1893 40.9742C85.1893 40.3639 85.3972 39.9012 85.813 39.5859C86.2289 39.264 86.8023 39.1031 87.5333 39.1031H89.8672ZM86.1752 41.0044C86.1752 41.3599 86.2859 41.6248 86.5072 41.7991C86.7352 41.9668 87.0739 42.0506 87.5233 42.0506H89.0021V39.9481H87.5635C86.638 39.9481 86.1752 40.3002 86.1752 41.0044Z" fill="#7FB36B"/>
<path d="M100.68 43.5898V45.6722H99.7749V44.4349H95.3183V45.6722H94.4029V43.5898H94.6846C95.0266 43.5697 95.2613 43.3283 95.3888 42.8655C95.5162 42.4027 95.6034 41.7488 95.6503 40.9038L95.7308 39.1031H99.8655V43.5898H100.68ZM96.5356 40.9742C96.5088 41.6449 96.4518 42.2015 96.3646 42.6442C96.2841 43.0801 96.1332 43.3953 95.9119 43.5898H98.8997V39.9481H96.5859L96.5356 40.9742Z" fill="#7FB36B"/>
<path d="M104.624 44.4952C104.095 44.4952 103.618 44.3779 103.196 44.1431C102.773 43.9084 102.441 43.5865 102.2 43.1774C101.965 42.7615 101.848 42.2921 101.848 41.769C101.848 41.2458 101.965 40.7797 102.2 40.3706C102.441 39.9548 102.773 39.6329 103.196 39.4049C103.618 39.1701 104.095 39.0528 104.624 39.0528C105.154 39.0528 105.627 39.1701 106.043 39.4049C106.465 39.6329 106.794 39.9548 107.029 40.3706C107.27 40.7797 107.391 41.2458 107.391 41.769C107.391 42.2921 107.27 42.7615 107.029 43.1774C106.794 43.5865 106.465 43.9084 106.043 44.1431C105.627 44.3779 105.154 44.4952 104.624 44.4952ZM104.624 43.6502C104.967 43.6502 105.272 43.5731 105.54 43.4188C105.815 43.2578 106.03 43.0365 106.184 42.7548C106.338 42.4665 106.415 42.1378 106.415 41.769C106.415 41.4001 106.338 41.0748 106.184 40.7931C106.03 40.5048 105.815 40.2834 105.54 40.1292C105.272 39.9749 104.967 39.8978 104.624 39.8978C104.282 39.8978 103.974 39.9749 103.699 40.1292C103.431 40.2834 103.216 40.5048 103.055 40.7931C102.901 41.0748 102.824 41.4001 102.824 41.769C102.824 42.1378 102.901 42.4665 103.055 42.7548C103.216 43.0365 103.431 43.2578 103.699 43.4188C103.974 43.5731 104.282 43.6502 104.624 43.6502Z" fill="#7FB36B"/>
<path d="M115.335 39.1031V44.4349H114.459V40.5416L112.467 43.8313H112.045L110.073 40.5316V44.4349H109.188V39.1031H110.184L112.276 42.7045L114.429 39.1031H115.335Z" fill="#7FB36B"/>
<path d="M119.518 39.0528C120.256 39.0528 120.819 39.2338 121.208 39.596C121.604 39.9582 121.802 40.498 121.802 41.2157V44.4349H120.886V43.7307C120.725 43.9788 120.494 44.1699 120.192 44.3041C119.897 44.4315 119.545 44.4952 119.136 44.4952C118.539 44.4952 118.059 44.351 117.697 44.0626C117.342 43.7743 117.164 43.3953 117.164 42.9259C117.164 42.4564 117.335 42.0808 117.677 41.7991C118.019 41.5108 118.562 41.3666 119.307 41.3666H120.836V41.1754C120.836 40.7596 120.715 40.441 120.474 40.2197C120.232 39.9984 119.877 39.8877 119.407 39.8877C119.092 39.8877 118.784 39.9414 118.482 40.0487C118.18 40.1493 117.925 40.2868 117.717 40.4612L117.315 39.7368C117.59 39.5155 117.919 39.3479 118.301 39.2338C118.683 39.1131 119.089 39.0528 119.518 39.0528ZM119.297 43.7508C119.666 43.7508 119.984 43.6703 120.252 43.5093C120.521 43.3417 120.715 43.1069 120.836 42.8051V42.0607H119.347C118.529 42.0607 118.12 42.3357 118.12 42.8856C118.12 43.1539 118.224 43.3651 118.432 43.5194C118.639 43.6737 118.928 43.7508 119.297 43.7508Z" fill="#7FB36B"/>
<path d="M132.319 44.5455L131.383 43.6099C130.759 44.2135 129.975 44.5153 129.029 44.5153C128.56 44.5153 128.137 44.4382 127.761 44.284C127.386 44.1297 127.091 43.9151 126.876 43.6401C126.668 43.3584 126.564 43.0399 126.564 42.6844C126.564 42.2552 126.695 41.8763 126.957 41.5476C127.225 41.2123 127.664 40.8703 128.275 40.5215C127.966 40.213 127.748 39.9347 127.621 39.6865C127.493 39.4384 127.429 39.1802 127.429 38.9119C127.429 38.4357 127.6 38.0535 127.943 37.7651C128.291 37.4767 128.754 37.3325 129.331 37.3325C129.867 37.3325 130.293 37.4633 130.608 37.7248C130.924 37.9864 131.081 38.3452 131.081 38.8013C131.081 39.1567 130.964 39.4753 130.729 39.757C130.501 40.0386 130.119 40.3337 129.582 40.6422L131.323 42.3726C131.524 41.9903 131.668 41.5644 131.755 41.0949L132.53 41.3464C132.409 41.9635 132.205 42.5 131.916 42.956L132.862 43.9017L132.319 44.5455ZM129.331 38.0367C129.016 38.0367 128.767 38.1172 128.586 38.2781C128.412 38.4324 128.325 38.6369 128.325 38.8918C128.325 39.0729 128.372 39.2473 128.466 39.4149C128.566 39.5826 128.757 39.8106 129.039 40.099C129.502 39.8374 129.82 39.6128 129.995 39.425C130.176 39.2372 130.266 39.0326 130.266 38.8113C130.266 38.5766 130.183 38.3888 130.015 38.248C129.854 38.1071 129.626 38.0367 129.331 38.0367ZM129.089 43.7105C129.787 43.7105 130.36 43.4892 130.81 43.0466L128.808 41.0547C128.325 41.323 127.986 41.5745 127.792 41.8092C127.604 42.0372 127.51 42.2954 127.51 42.5838C127.51 42.9192 127.654 43.1908 127.943 43.3987C128.238 43.6066 128.62 43.7105 129.089 43.7105Z" fill="#7FB36B"/>
<path d="M140.166 39.2841C140.663 39.2841 141.105 39.3948 141.494 39.6161C141.883 39.8374 142.185 40.1459 142.4 40.5416C142.621 40.9306 142.732 41.3766 142.732 41.8796C142.732 42.396 142.614 42.8554 142.38 43.2578C142.152 43.6535 141.826 43.962 141.404 44.1834C140.988 44.4047 140.512 44.5153 139.975 44.5153C139.07 44.5153 138.369 44.2068 137.873 43.5898C137.383 42.9661 137.138 42.0909 137.138 40.9642C137.138 39.871 137.363 39.0159 137.812 38.3989C138.262 37.7751 138.949 37.3627 139.875 37.1615L142.309 36.6182L142.45 37.5035L140.207 37.9864C139.509 38.1407 138.989 38.4022 138.647 38.7711C138.305 39.1399 138.111 39.6698 138.064 40.3606C138.292 40.0185 138.587 39.7536 138.949 39.5658C139.311 39.378 139.717 39.2841 140.166 39.2841ZM139.995 43.7105C140.337 43.7105 140.639 43.6334 140.901 43.4792C141.169 43.3249 141.377 43.1136 141.525 42.8454C141.672 42.5704 141.746 42.2585 141.746 41.9098C141.746 41.38 141.585 40.9541 141.263 40.6322C140.941 40.3103 140.519 40.1493 139.995 40.1493C139.472 40.1493 139.046 40.3103 138.718 40.6322C138.396 40.9541 138.235 41.38 138.235 41.9098C138.235 42.2585 138.309 42.5704 138.456 42.8454C138.611 43.1136 138.822 43.3249 139.09 43.4792C139.358 43.6334 139.66 43.7105 139.995 43.7105Z" fill="#7FB36B"/>
<path d="M144.513 39.1031H145.479V42.9862L148.749 39.1031H149.624V44.4349H148.658V40.5517L145.399 44.4349H144.513V39.1031Z" fill="#7FB36B"/>
<path d="M154.7 41.6583C155.055 41.7522 155.33 41.9031 155.525 42.111C155.719 42.3189 155.816 42.5771 155.816 42.8856C155.816 43.2008 155.709 43.4825 155.494 43.7307C155.28 43.9721 154.981 44.1632 154.599 44.3041C154.224 44.4382 153.801 44.5053 153.332 44.5053C152.936 44.5053 152.547 44.455 152.165 44.3544C151.789 44.2471 151.454 44.0962 151.159 43.9017L151.45 43.1673C151.705 43.3283 151.997 43.4557 152.326 43.5496C152.654 43.6368 152.986 43.6804 153.321 43.6804C153.778 43.6804 154.14 43.6032 154.408 43.449C154.683 43.288 154.82 43.0734 154.82 42.8051C154.82 42.557 154.71 42.3659 154.488 42.2317C154.274 42.0976 153.969 42.0305 153.573 42.0305H152.597V41.3364H153.503C153.865 41.3364 154.15 41.2727 154.358 41.1452C154.566 41.0178 154.67 40.8434 154.67 40.6221C154.67 40.3807 154.545 40.1929 154.297 40.0588C154.056 39.9246 153.727 39.8576 153.311 39.8576C152.782 39.8576 152.222 39.995 151.631 40.27L151.37 39.5256C152.02 39.197 152.701 39.0326 153.412 39.0326C153.841 39.0326 154.227 39.093 154.569 39.2137C154.911 39.3344 155.179 39.5055 155.374 39.7268C155.568 39.9481 155.665 40.1996 155.665 40.4813C155.665 40.7428 155.578 40.9776 155.404 41.1855C155.23 41.3934 154.995 41.551 154.7 41.6583Z" fill="#7FB36B"/>
<path d="M157.687 39.1031H158.653V41.3666H161.691V39.1031H162.657V44.4349H161.691V42.2015H158.653V44.4349H157.687V39.1031Z" fill="#7FB36B"/>
<path d="M169.756 41.7991C169.756 41.8729 169.749 41.9702 169.735 42.0909H165.41C165.47 42.5603 165.675 42.9393 166.023 43.2277C166.379 43.5093 166.818 43.6502 167.341 43.6502C167.978 43.6502 168.491 43.4356 168.88 43.0063L169.414 43.6301C169.172 43.9117 168.87 44.1264 168.508 44.2739C168.153 44.4214 167.754 44.4952 167.311 44.4952C166.748 44.4952 166.248 44.3812 165.812 44.1532C165.376 43.9184 165.037 43.5932 164.796 43.1774C164.561 42.7615 164.444 42.2921 164.444 41.769C164.444 41.2525 164.558 40.7864 164.786 40.3706C165.021 39.9548 165.339 39.6329 165.742 39.4049C166.151 39.1701 166.61 39.0528 167.12 39.0528C167.63 39.0528 168.082 39.1701 168.478 39.4049C168.88 39.6329 169.192 39.9548 169.414 40.3706C169.642 40.7864 169.756 41.2626 169.756 41.7991ZM167.12 39.8676C166.657 39.8676 166.268 40.0085 165.953 40.2901C165.644 40.5718 165.463 40.9407 165.41 41.3967H168.83C168.776 40.9474 168.592 40.5819 168.277 40.3002C167.968 40.0118 167.583 39.8676 167.12 39.8676Z" fill="#7FB36B"/>
<path d="M173.98 44.4952C173.437 44.4952 172.951 44.3779 172.521 44.1431C172.099 43.9084 171.767 43.5865 171.525 43.1774C171.284 42.7615 171.163 42.2921 171.163 41.769C171.163 41.2458 171.284 40.7797 171.525 40.3706C171.767 39.9548 172.099 39.6329 172.521 39.4049C172.951 39.1701 173.437 39.0528 173.98 39.0528C174.463 39.0528 174.892 39.15 175.268 39.3445C175.65 39.539 175.945 39.8207 176.153 40.1895L175.419 40.6624C175.251 40.4075 175.043 40.2164 174.795 40.0889C174.547 39.9615 174.272 39.8978 173.97 39.8978C173.621 39.8978 173.306 39.9749 173.024 40.1292C172.749 40.2834 172.531 40.5048 172.37 40.7931C172.216 41.0748 172.139 41.4001 172.139 41.769C172.139 42.1445 172.216 42.4765 172.37 42.7649C172.531 43.0466 172.749 43.2645 173.024 43.4188C173.306 43.5731 173.621 43.6502 173.97 43.6502C174.272 43.6502 174.547 43.5865 174.795 43.459C175.043 43.3316 175.251 43.1405 175.419 42.8856L176.153 43.3484C175.945 43.7172 175.65 44.0023 175.268 44.2035C174.892 44.398 174.463 44.4952 173.98 44.4952Z" fill="#7FB36B"/>
<path d="M179.707 39.0528C180.445 39.0528 181.008 39.2338 181.397 39.596C181.793 39.9582 181.991 40.498 181.991 41.2157V44.4349H181.075V43.7307C180.914 43.9788 180.683 44.1699 180.381 44.3041C180.086 44.4315 179.734 44.4952 179.325 44.4952C178.728 44.4952 178.248 44.351 177.886 44.0626C177.531 43.7743 177.353 43.3953 177.353 42.9259C177.353 42.4564 177.524 42.0808 177.866 41.7991C178.208 41.5108 178.751 41.3666 179.496 41.3666H181.025V41.1754C181.025 40.7596 180.904 40.441 180.663 40.2197C180.421 39.9984 180.066 39.8877 179.596 39.8877C179.281 39.8877 178.973 39.9414 178.671 40.0487C178.369 40.1493 178.114 40.2868 177.906 40.4612L177.504 39.7368C177.779 39.5155 178.108 39.3479 178.49 39.2338C178.872 39.1131 179.278 39.0528 179.707 39.0528ZM179.486 43.7508C179.855 43.7508 180.173 43.6703 180.441 43.5093C180.71 43.3417 180.904 43.1069 181.025 42.8051V42.0607H179.536C178.718 42.0607 178.309 42.3357 178.309 42.8856C178.309 43.1539 178.413 43.3651 178.621 43.5194C178.829 43.6737 179.117 43.7508 179.486 43.7508Z" fill="#7FB36B"/>
<path d="M80.154 17.0307H75.0986V29.943H73.0343V17.0307H68V15.1982H80.154V17.0307Z" fill="#1A1A1A"/>
<path d="M91.898 22.2968C92.8951 22.5355 93.6464 22.9638 94.1519 23.5817C94.6715 24.1855 94.9313 24.9649 94.9313 25.9198C94.9313 27.1977 94.4609 28.1877 93.52 28.8898C92.5932 29.592 91.238 29.943 89.4546 29.943H82.7141V15.1982H89.0544C90.6693 15.1982 91.9261 15.5282 92.8249 16.1882C93.7376 16.8341 94.194 17.768 94.194 18.9897C94.194 19.7901 93.9904 20.4712 93.5832 21.0329C93.19 21.5946 92.6283 22.0159 91.898 22.2968ZM84.7994 21.6859H88.9069C89.9321 21.6859 90.7114 21.4823 91.2451 21.075C91.7927 20.6678 92.0666 20.071 92.0666 19.2846C92.0666 18.4982 91.7927 17.9014 91.2451 17.4941C90.6974 17.0729 89.918 16.8622 88.9069 16.8622H84.7994V21.6859ZM89.4125 28.279C91.6734 28.279 92.8038 27.4364 92.8038 25.7513C92.8038 24.9087 92.5159 24.2908 91.9402 23.8976C91.3785 23.4904 90.5359 23.2868 89.4125 23.2868H84.7994V28.279H89.4125Z" fill="#1A1A1A"/>
<path d="M105.086 30.1115C103.597 30.1115 102.256 29.7886 101.062 29.1426C99.8688 28.4826 98.9279 27.5768 98.2398 26.4253C97.5658 25.2738 97.2287 23.9889 97.2287 22.5706C97.2287 21.1523 97.5658 19.8674 98.2398 18.7159C98.9279 17.5644 99.8688 16.6656 101.062 16.0197C102.256 15.3596 103.597 15.0296 105.086 15.0296C106.56 15.0296 107.894 15.3596 109.088 16.0197C110.281 16.6656 111.215 17.5644 111.889 18.7159C112.563 19.8533 112.9 21.1382 112.9 22.5706C112.9 24.0029 112.563 25.2949 111.889 26.4464C111.215 27.5838 110.281 28.4826 109.088 29.1426C107.894 29.7886 106.56 30.1115 105.086 30.1115ZM105.086 28.2368C106.167 28.2368 107.136 27.9911 107.993 27.4996C108.863 27.0081 109.544 26.334 110.036 25.4774C110.541 24.6068 110.794 23.6378 110.794 22.5706C110.794 21.5033 110.541 20.5414 110.036 19.6848C109.544 18.8142 108.863 18.1331 107.993 17.6416C107.136 17.1501 106.167 16.9043 105.086 16.9043C104.004 16.9043 103.021 17.1501 102.137 17.6416C101.266 18.1331 100.578 18.8142 100.072 19.6848C99.5809 20.5414 99.3352 21.5033 99.3352 22.5706C99.3352 23.6378 99.5809 24.6068 100.072 25.4774C100.578 26.334 101.266 27.0081 102.137 27.4996C103.021 27.9911 104.004 28.2368 105.086 28.2368Z" fill="#1A1A1A"/>
<path d="M116.306 15.1982H118.391V26.5728L127.111 15.1982H129.049V29.943H126.985V18.5895L118.243 29.943H116.306V15.1982ZM126.813 14.0647C125.662 14.0647 118.662 14.0647 118.662 14.0647V12.2802H126.813V14.0647Z" fill="#1A1A1A"/>
<path d="M144.531 30.1958C143.028 30.1958 141.666 29.8728 140.445 29.2269C139.237 28.5668 138.282 27.6611 137.58 26.5096C136.892 25.344 136.548 24.031 136.548 22.5706C136.548 21.1101 136.892 19.8042 137.58 18.6527C138.282 17.4871 139.237 16.5814 140.445 15.9354C141.666 15.2754 143.035 14.9454 144.552 14.9454C145.83 14.9454 146.981 15.1701 148.007 15.6194C149.046 16.0688 149.916 16.7148 150.618 17.5573L148.428 19.5795C147.431 18.428 146.195 17.8522 144.721 17.8522C143.808 17.8522 142.993 18.0558 142.277 18.4631C141.561 18.8563 140.999 19.411 140.592 20.1272C140.199 20.8433 140.002 21.6578 140.002 22.5706C140.002 23.4834 140.199 24.2978 140.592 25.014C140.999 25.7302 141.561 26.2919 142.277 26.6992C142.993 27.0923 143.808 27.289 144.721 27.289C146.195 27.289 147.431 26.7062 148.428 25.5406L150.618 27.5628C149.916 28.4194 149.046 29.0724 148.007 29.5217C146.967 29.9711 145.809 30.1958 144.531 30.1958Z" fill="#1A1A1A"/>
<path d="M158.551 24.0029H156.192V29.943H152.8V15.1982H156.192V21.1593H158.635L162.511 15.1982H166.113L161.289 22.3178L166.26 29.943H162.385L158.551 24.0029Z" fill="#1A1A1A"/>
<path d="M181.373 15.1982V29.943H178.003V17.9786H172.948L172.842 21.054C172.772 23.1463 172.604 24.8455 172.337 26.1515C172.07 27.4434 171.621 28.4405 170.989 29.1426C170.371 29.8307 169.5 30.1747 168.377 30.1747C167.913 30.1747 167.352 30.0975 166.692 29.943L166.902 27.0572C167.085 27.1134 167.288 27.1415 167.513 27.1415C168.328 27.1415 168.896 26.664 169.219 25.7091C169.542 24.7402 169.746 23.2306 169.83 21.1804L170.041 15.1982H181.373Z" fill="#1A1A1A"/>
<path d="M195.04 26.7834H188.194L186.888 29.943H183.392L189.964 15.1982H193.334L199.927 29.943H196.346L195.04 26.7834ZM193.966 24.1925L191.628 18.5473L189.29 24.1925H193.966Z" fill="#1A1A1A"/>
<path d="M217.214 27.1626V32.9973H214.055V29.943H203.649V32.9973H200.489L200.51 27.1626H201.1C201.985 27.1345 202.61 26.4885 202.975 25.2247C203.34 23.9608 203.565 22.1563 203.649 19.8112L203.817 15.1982H215.15V27.1626H217.214ZM206.661 20.1272C206.591 21.8825 206.443 23.357 206.219 24.5506C205.994 25.7302 205.65 26.6009 205.187 27.1626H211.78V17.9786H206.724L206.661 20.1272Z" fill="#1A1A1A"/>
</svg>
