<svg xmlns="http://www.w3.org/2000/svg" width="8" height="8" viewBox="0 0 8 8" fill="none">
  <path d="M4 7C3.71305 7 3.48357 6.76157 3.49452 6.47484L3.56204 4.70833L1.94521 5.6842C1.71358 5.82401 1.41246 5.74922 1.27316 5.51729C1.12602 5.27231 1.21934 4.9539 1.47544 4.82711L3.14599 4L1.47544 3.17289C1.21934 3.0461 1.12602 2.72769 1.27316 2.48271C1.41246 2.25078 1.71358 2.17599 1.94521 2.3158L3.56204 3.29167L3.49452 1.52516C3.48357 1.23843 3.71305 1 4 1C4.28695 1 4.51643 1.23843 4.50547 1.52516L4.43796 3.29167L6.05479 2.3158C6.28642 2.17599 6.58754 2.25078 6.72684 2.48271C6.87398 2.72769 6.78066 3.0461 6.52456 3.17289L4.85401 4L6.52456 4.82711C6.78066 4.9539 6.87398 5.27231 6.72684 5.51729C6.58754 5.74922 6.28642 5.82401 6.05479 5.6842L4.43796 4.70833L4.50547 6.47484C4.51643 6.76157 4.28695 7 4 7Z" fill="#E15D56"/>
</svg>