<svg width="16" height="17" viewBox="0 0 16 17" fill="none" xmlns="http://www.w3.org/2000/svg">
<g clip-path="url(#clip0_697_11107)">
<path d="M10.6663 2.81184C11.6542 3.30274 12.333 4.32209 12.333 5.5C12.333 6.67791 11.6542 7.69726 10.6663 8.18816M11.9997 11.6776C13.0073 12.1336 13.9147 12.8767 14.6663 13.8333M1.33301 13.8333C2.63067 12.1817 4.39246 11.1667 6.33301 11.1667C8.27355 11.1667 10.0353 12.1817 11.333 13.8333M9.33301 5.5C9.33301 7.15685 7.98986 8.5 6.33301 8.5C4.67615 8.5 3.33301 7.15685 3.33301 5.5C3.33301 3.84315 4.67615 2.5 6.33301 2.5C7.98986 2.5 9.33301 3.84315 9.33301 5.5Z" stroke="currentColor" stroke-width="1.5" stroke-linecap="round" stroke-linejoin="round"/>
</g>
<defs>
<clipPath id="clip0_697_11107">
<rect width="16" height="16" fill="white" transform="translate(0 0.5)"/>
</clipPath>
</defs>
</svg>
